<?xml version="1.0" encoding="iso-8859-1"?>
<!-- Generator: Adobe Illustrator 19.0.0, SVG Export Plug-In . SVG Version: 6.00 Build 0)  -->
<svg version="1.1" id="Capa_1" xmlns="http://www.w3.org/2000/svg" xmlns:xlink="http://www.w3.org/1999/xlink" x="0px" y="0px"
	 viewBox="0 0 512 512" style="enable-background:new 0 0 512 512;" xml:space="preserve">
<g>
	<g>
		<path d="M359.511,54c-38.912,0-75.289,14.822-103.518,41.956c-24.112-23.102-54.697-37.523-87.4-41.085
			C151.396,32.47,124.358,18,94,18C42.168,18,0,60.168,0,112c0,15.391,3.718,29.93,10.304,42.766C3.468,172.976,0,192.183,0,211.933
			c0,33.558,13.568,69.377,40.328,106.463c20.902,28.969,49.939,58.888,86.304,88.926c61.529,50.826,122.029,84.064,124.575,85.455
			C252.7,493.592,254.351,494,256,494s3.3-0.408,4.793-1.224c2.53-1.382,62.304-34.224,123.439-84.522
			c0.11-0.088,0.22-0.175,0.326-0.268c0.27-0.222,0.54-0.443,0.81-0.666c36.364-30.038,65.401-59.958,86.304-88.926
			C498.432,281.31,512,245.49,512,211.933C512,124.848,443.594,54,359.511,54z M94,38c40.804,0,74,33.196,74,74s-33.196,74-74,74
			s-74-33.196-74-74S53.196,38,94,38z M381.127,384.681c-13.259-22.125-35.006-38.469-60.247-44.746
			c-5.358-1.331-10.785,1.932-12.117,7.292c-1.1,4.423,0.937,8.885,4.693,11.06c-9,8.445-19.718,14.803-31.587,18.636
			c-5.256,1.697-8.14,7.334-6.442,12.589c1.367,4.234,5.291,6.93,9.514,6.93c1.018,0,2.054-0.157,3.075-0.487
			c17.714-5.721,33.364-15.956,45.691-29.805c13.338,7.124,24.475,18.073,31.787,31.463c-48,38.59-94.705,66.398-109.494,74.898
			c-14.79-8.499-61.494-36.307-109.494-74.897c7.303-13.351,18.489-24.32,31.802-31.451c12.136,13.626,27.509,23.768,44.891,29.535
			c1.046,0.347,2.106,0.512,3.151,0.512c4.191,0,8.097-2.657,9.489-6.854c1.739-5.242-1.101-10.901-6.342-12.641
			c-11.615-3.854-22.115-10.139-30.954-18.43c3.756-2.175,5.792-6.637,4.692-11.06c-1.332-5.36-6.764-8.623-12.117-7.292
			c-25.492,6.339-46.977,22.413-60.262,44.733C74,336.221,20,273.898,20,211.933c0-12.471,1.579-24.687,4.689-36.503
			C41.887,194.206,66.591,206,94,206c51.832,0,94-42.168,94-94c0-12.253-2.359-23.965-6.644-34.709
			c25.547,5.92,48.968,19.662,67.253,39.723c1.895,2.079,4.577,3.264,7.391,3.264c2.813,0,5.496-1.185,7.391-3.264
			C288.672,89.276,322.809,74,359.511,74C432.565,74,492,135.876,492,211.933C492,273.904,437.99,336.232,381.127,384.681z"/>
	</g>
</g>
<g>
	<g>
		<path d="M392.772,101.205c-5.147-2-10.941,0.551-12.943,5.7c-2,5.147,0.552,10.942,5.699,12.943
			C423.493,134.599,449,172.817,449,214.949c0,5.523,4.478,10,10,10c5.522,0,10-4.477,10-10
			C469,164.632,438.366,118.921,392.772,101.205z"/>
	</g>
</g>
<g>
	<g>
		<path d="M351.587,93.495c-5.522,0-10,4.477-10,10s4.478,10,10,10h0.049c5.522,0,9.976-4.477,9.976-10
			S357.109,93.495,351.587,93.495z"/>
	</g>
</g>
<g>
	<g>
		<path d="M256.026,380.975H256c-5.522,0-9.987,4.477-9.987,10s4.491,10,10.014,10s10-4.477,10-10S261.549,380.975,256.026,380.975z
			"/>
	</g>
</g>
<g>
	<g>
		<path d="M355.408,239.202c-0.007-0.073-0.015-0.143-0.024-0.214c-5.523-49.952-47.983-88.936-99.384-88.936
			c-55.14,0-99.999,44.859-99.999,99.999c0,0.183,0.006,0.365,0.007,0.548c0,0.021,0.001,0.041,0.001,0.062
			c0.33,54.86,45.056,99.389,99.991,99.389c55.14,0,99.999-44.859,99.999-99.999C355.999,246.385,355.795,242.766,355.408,239.202z
			 M256,170.051c38.838,0,71.288,27.825,78.494,64.585c-10.64,4.901-22.301,7.477-34.109,7.477
			c-21.059,0-41.042-8.005-56.269-22.542c-1.966-1.876-4.581-2.879-7.324-2.758c-2.714,0.114-5.266,1.327-7.067,3.361
			c-12.348,13.942-30.089,21.939-48.672,21.939c-1.55,0-3.097-0.075-4.642-0.184C180.494,201.617,214.63,170.051,256,170.051z
			 M256,330.049c-40.048,0-73.312-29.581-79.102-68.04c1.384,0.067,2.77,0.104,4.155,0.104c20.986,0,41.147-7.794,56.653-21.655
			c17.824,14.028,39.738,21.655,62.679,21.655c12.118,0,24.119-2.176,35.389-6.361C332.836,297.21,298.192,330.049,256,330.049z"/>
	</g>
</g>
<g>
	<g>
		<path d="M134,102h-30V72c0-5.523-4.478-10-10-10c-5.522,0-10,4.477-10,10v30H54c-5.522,0-10,4.477-10,10s4.478,10,10,10h30v30
			c0,5.523,4.478,10,10,10c5.522,0,10-4.477,10-10v-30h30c5.522,0,10-4.477,10-10S139.522,102,134,102z"/>
	</g>
</g>
<g>
</g>
<g>
</g>
<g>
</g>
<g>
</g>
<g>
</g>
<g>
</g>
<g>
</g>
<g>
</g>
<g>
</g>
<g>
</g>
<g>
</g>
<g>
</g>
<g>
</g>
<g>
</g>
<g>
</g>
</svg>
