<?xml version="1.0" encoding="iso-8859-1"?>
<!-- Generator: Adobe Illustrator 19.0.0, SVG Export Plug-In . SVG Version: 6.00 Build 0)  -->
<svg version="1.1" id="Capa_1" xmlns="http://www.w3.org/2000/svg" xmlns:xlink="http://www.w3.org/1999/xlink" x="0px" y="0px"
	 viewBox="0 0 480.04 480.04" style="enable-background:new 0 0 480.04 480.04;" xml:space="preserve">
<g>
	<g>
		<path d="M400.04,232.051c-9.612-0.024-19.162,1.541-28.264,4.632c-17.988,6.08-37.476,6.08-55.464,0
			c-0.216-0.072-0.44-0.12-0.656-0.192c-0.408-0.136-0.8-0.304-1.216-0.432v0.064c-8.551-2.717-17.468-4.104-26.44-4.112
			c-44.112,0-80,32.296-80,72c0,0.256,0,0.504,0,0.76v0.192c0.062,3.264,0.372,6.519,0.928,9.736l10.04,105.488
			c3.115,33.993,31.697,59.966,65.832,59.824h16c8.408,0.008,16.74-1.597,24.544-4.728l8-3.2c11.935-4.8,25.265-4.8,37.2,0l8,3.2
			c33.889,13.556,72.35-2.927,85.906-36.815c2.341-5.851,3.832-12.007,4.43-18.281l10.04-105.488
			c0.556-3.217,0.866-6.472,0.928-9.736l0.152-0.152c0-0.256,0.04-0.504,0.04-0.76C480.04,264.347,444.152,232.051,400.04,232.051z
			 M224.848,312.867L224,303.771c0.168-30.768,28.8-55.76,64-55.76c7.527-0.006,15.008,1.174,22.168,3.496
			c23.861,6.568,40.761,27.779,41.832,52.504c-0.017,5.967-1.115,11.881-3.24,17.456c-6.005-6.348-13.02-11.657-20.76-15.712
			v-33.744h-16v27.496c-5.228-1.501-10.584-2.511-16-3.016v-32.48h-16v32.48c-5.416,0.505-10.772,1.515-16,3.016v-27.496h-16v33.744
			c-7.756,4.052-14.785,9.365-20.8,15.72C226.157,318.683,225.37,315.801,224.848,312.867z M366.304,318.723
			c3.594-0.772,7.143-1.739,10.632-2.896c7.426-2.53,15.219-3.819,23.064-3.816c20.194-0.278,39.445,8.533,52.432,24
			c-1.445,1.794-2.994,3.501-4.64,5.112l-0.416,0.488c-1.594,1.541-3.271,2.994-5.024,4.352l-0.28,0.224
			c-5.762,4.368-12.195,7.773-19.048,10.08l-0.928,0.296c-1.92,0.624-3.888,1.16-5.872,1.6c-0.512,0.12-1.016,0.24-1.528,0.344
			c-1.864,0.392-3.752,0.68-5.664,0.92c-0.56,0.072-1.112,0.168-1.672,0.232c-2.4,0.24-4.864,0.392-7.328,0.392
			c-7.859,0.02-15.668-1.256-23.112-3.776c-2.488-0.848-5.024-1.6-7.584-2.232c-1.032-0.264-2.08-0.456-3.12-0.68
			c-1.488-0.328-2.976-0.664-4.48-0.928c-1.384-0.24-2.768-0.416-4.16-0.6c-1.168-0.152-2.32-0.312-3.488-0.424
			c-1.536-0.152-3.072-0.248-4.616-0.328c-0.288,0-0.568-0.048-0.856-0.056c0.856-0.904,1.68-1.832,2.488-2.768
			C358.501,339.799,363.719,329.659,366.304,318.723z M340.384,336.027c-0.688,0.864-1.488,1.6-2.232,2.456
			c-1,1.12-2,2.248-3.104,3.304c-1.104,1.056-2.144,1.904-3.256,2.816c-0.965,0.805-1.96,1.589-2.984,2.352
			c-1.232,0.896-2.488,1.76-3.792,2.576c-1.064,0.672-2.192,1.28-3.312,1.896c-1.336,0.728-2.656,1.488-4.056,2.136
			c-2.357,1.089-4.774,2.042-7.24,2.856c-2.192,0.72-4.432,1.328-6.704,1.84l-1.024,0.208c-1.944,0.408-3.928,0.72-5.928,0.968
			c-0.528,0.056-1.056,0.136-1.6,0.192c-2.4,0.232-4.752,0.384-7.2,0.384s-4.904-0.152-7.328-0.392
			c-0.56-0.064-1.112-0.16-1.672-0.232c-1.912-0.24-3.8-0.528-5.664-0.92c-0.512-0.104-1.016-0.224-1.528-0.344
			c-1.984-0.456-3.952-0.992-5.872-1.6l-0.928-0.296c-6.853-2.307-13.286-5.712-19.048-10.08l-0.28-0.224
			c-1.753-1.358-3.43-2.811-5.024-4.352l-0.448-0.432c-1.646-1.611-3.195-3.318-4.64-5.112
			c25.003-28.957,68.746-32.163,97.703-7.161C335.782,331.075,338.175,333.468,340.384,336.027z M452.976,418.667
			c-2.349,25.723-23.946,45.397-49.776,45.344c-6.372,0.009-12.687-1.207-18.6-3.584l-8.04-3.2
			c-5.315-2.115-10.881-3.532-16.56-4.216v-53h-16v53c-5.672,0.678-11.233,2.087-16.544,4.192l-8.048,3.2
			c-5.913,2.388-12.231,3.613-18.608,3.608h-16c-25.858,0.095-47.501-19.586-49.856-45.336l-6.344-66.592
			c3.272,3.274,6.83,6.248,10.632,8.888l1.032,0.688c2.52,1.704,5.135,3.264,7.832,4.672l0.256,0.136
			c5.812,2.989,11.952,5.292,18.296,6.864c0.544,0.136,1.088,0.256,1.6,0.376c2.552,0.592,5.16,1.056,7.808,1.416
			c0.736,0.104,1.464,0.224,2.208,0.304c3.232,0.375,6.482,0.57,9.736,0.584c3.208-0.019,6.413-0.211,9.6-0.576
			c0.6-0.064,1.192-0.144,1.784-0.216c5.082-0.647,10.096-1.745,14.984-3.28v0.064c0.416-0.136,0.8-0.304,1.232-0.44
			c0.208-0.072,0.424-0.112,0.632-0.184c2.08-0.704,4.192-1.312,6.312-1.856c0.856-0.216,1.728-0.384,2.584-0.576
			c1.272-0.28,2.544-0.56,3.832-0.8c1.136-0.2,2.28-0.352,3.432-0.504c0.984-0.136,1.976-0.264,2.968-0.36
			c1.32-0.136,2.64-0.224,3.96-0.288c0.8-0.048,1.664-0.08,2.504-0.104c1.4,0,2.8-0.04,4.2,0l2.344,0.096
			c1.4,0.072,2.8,0.16,4.192,0.296c0.856,0.088,1.704,0.208,2.56,0.312c1.288,0.168,2.584,0.336,3.864,0.56
			c1.12,0.192,2.216,0.44,3.328,0.68s2.04,0.416,3.048,0.672c2.128,0.544,4.248,1.152,6.336,1.864
			c12.194,4.161,25.163,5.544,37.96,4.048c0.744-0.08,1.472-0.2,2.208-0.304c2.648-0.36,5.256-0.8,7.808-1.416
			c0.544-0.12,1.088-0.24,1.6-0.376c6.344-1.572,12.484-3.875,18.296-6.864l0.256-0.136c2.697-1.408,5.312-2.968,7.832-4.672
			l1.032-0.688c3.802-2.64,7.36-5.614,10.632-8.888L452.976,418.667z M463.136,312.867c-0.522,2.935-1.309,5.816-2.352,8.608
			c-15.953-16.404-37.902-25.599-60.784-25.464c-9.612-0.024-19.162,1.541-28.264,4.632c-1.256,0.424-2.552,0.752-3.832,1.12
			c-0.707-16.79-7.597-32.726-19.344-44.744c9.646-0.392,19.187-2.153,28.336-5.232c7.441-2.521,15.247-3.796,23.104-3.776
			c35.2,0,63.832,24.992,64,55.76L463.136,312.867z"/>
	</g>
</g>
<g>
	<g>
		<path d="M397.656,26.355l-24-24c-3.124-3.123-8.188-3.123-11.312,0l-40,40L129.928,234.771
			c-42.551-23.262-95.904-7.625-119.167,34.926C3.669,282.671-0.032,297.225,0,312.011v128c0.026,22.08,17.92,39.974,40,40h160
			c4.418,0,8-3.582,8-8s-3.582-8-8-8c-13.255,0-24-10.745-24-24v-128c-0.036-14.656-3.732-29.071-10.752-41.936L357.656,77.667
			l40-40C400.779,34.543,400.779,29.479,397.656,26.355z M40,464.011c-13.255,0-24-10.745-24-24v-128
			c-0.115-39.649,31.934-71.885,71.583-72c10.51-0.031,20.899,2.247,30.433,6.672l-12.264,12.264
			c-20.129-6.675-42.3-1.467-57.352,13.472c-10.536,10.477-16.441,24.734-16.4,39.592v128c0.029,8.684,2.914,17.117,8.208,24H40z
			 M70.344,329.667c9.751,9.751,25.561,9.751,35.312,0l22.008-22.008c2.438,21.921-13.356,41.668-35.276,44.106
			c-12.07,1.342-24.095-2.88-32.676-11.474c-15.615-15.62-15.615-40.94,0-56.56c8.609-8.519,20.601-12.701,32.64-11.384
			l-22.008,22.008C60.593,304.106,60.593,319.916,70.344,329.667z M72,464.011c-13.255,0-24-10.745-24-24v-88.848
			c0.144,0.144,0.264,0.296,0.4,0.44c4.535,4.518,9.812,8.225,15.6,10.96v77.448c0.029,8.684,2.914,17.117,8.208,24H72z
			 M104,464.011c-13.255,0-24-10.745-24-24v-72.632c5.3,0.843,10.7,0.843,16,0v72.632c0.029,8.684,2.914,17.117,8.208,24H104z
			 M136,464.011c-13.255,0-24-10.745-24-24v-77.448c5.788-2.735,11.065-6.442,15.6-10.96c0.144-0.144,0.256-0.312,0.4-0.464v88.872
			c0.029,8.684,2.914,17.117,8.208,24H136z M168,464.011c-13.255,0-24-10.745-24-24v-128c-0.038-0.248-0.089-0.493-0.152-0.736
			c-0.036-5.78-0.978-11.519-2.792-17.008l12.264-12.264c4.366,9.403,6.645,19.641,6.68,30.008v128
			C159.989,448.668,162.797,457.092,168,464.011z M94.344,318.355c-3.51,3.488-9.178,3.488-12.688,0
			c-3.504-3.495-3.511-9.168-0.017-12.671c0.006-0.006,0.011-0.011,0.017-0.017L328,59.323l12.688,12.688L94.344,318.355z
			 M352,60.699l-12.688-12.688L368,19.323l12.688,12.688L352,60.699z"/>
	</g>
</g>
<g>
</g>
<g>
</g>
<g>
</g>
<g>
</g>
<g>
</g>
<g>
</g>
<g>
</g>
<g>
</g>
<g>
</g>
<g>
</g>
<g>
</g>
<g>
</g>
<g>
</g>
<g>
</g>
<g>
</g>
</svg>
