<svg class="categoryIcon" id="Layer_5" enable-background="new 0 0 64 64" height="512" viewBox="0 0 64 64" width="512" xmlns="http://www.w3.org/2000/svg"><g><path d="m56 25h-22v10h22zm-2 8h-18v-6h18z"/><path d="m35 59h24v-14h-24zm22-2h-9v-4h2v-2h-2v-4h9zm-20-10h9v4h-2v2h2v4h-9z"/><path d="m5 45v14h24v-14zm2 2h9v4h-2v2h2v4h-9zm20 10h-9v-4h2v-2h-2v-4h9z"/><path d="m58.781 21h-13.781v-4.184c1.161-.414 2-1.514 2-2.816 0-1.654-1.346-3-3-3h-4c-1.654 0-3 1.346-3 3 0 1.302.839 2.402 2 2.816v4.184h-4v-11c0-4.963-4.037-9-9-9s-9 4.037-9 9v1h6v-1c0-1.654 1.346-3 3-3s3 1.346 3 3v11h-2.695c-.199-.42-.425-.827-.705-1.199l-5.6-7.468-5.6 7.467c-.28.373-.506.78-.705 1.2h-8.476l-4.189 16.758-.03 25.242h62v-25zm-18.781-8h4c.552 0 1 .448 1 1s-.448 1-1 1h-4c-.552 0-1-.448-1-1s.448-1 1-1zm1 4h2v4h-2zm-15-12c-2.415 0-4.435 1.721-4.899 4h-2.029c.486-3.388 3.407-6 6.928-6 3.859 0 7 3.141 7 7v11h-2v-11c0-2.757-2.243-5-5-5zm-10 16 4-5.333 4 5.334c.645.858 1 1.924 1 2.999 0 2.757-2.243 5-5 5s-5-2.243-5-5c0-1.075.355-2.141 1-3zm4 10c2.785 0 5.188-1.639 6.315-4h3.685v6h-20v-6h3.685c1.127 2.361 3.53 4 6.315 4zm-13.219-8h6.301c-.049.331-.082.665-.082 1 0 .34.033.672.08 1h-5.08v10h24v-10h-5.08c.047-.328.08-.66.08-1 0-.335-.033-.669-.082-1h30.301l3.5 14h-57.438zm-3.781 18v-2h58v2zm0 2h28v18h-28zm30 18v-18h28v18z"/></g></svg>
