<?xml version="1.0" encoding="iso-8859-1"?>
<!-- Generator: Adobe Illustrator 19.0.0, SVG Export Plug-In . SVG Version: 6.00 Build 0)  -->
<svg version="1.1" id="Capa_1" xmlns="http://www.w3.org/2000/svg" xmlns:xlink="http://www.w3.org/1999/xlink" x="0px" y="0px"
	 viewBox="0 0 480 480" style="enable-background:new 0 0 480 480;" xml:space="preserve">
<g>
	<g>
		<path d="M416,0H64c-4.418,0-8,3.582-8,8v432c0,4.418,3.582,8,8,8h16v24c0,4.418,3.582,8,8,8h32c4.418,0,8-3.582,8-8v-24h224v24
			c0,4.418,3.582,8,8,8h32c4.418,0,8-3.582,8-8v-24h16c4.418,0,8-3.582,8-8V8C424,3.582,420.418,0,416,0z M112,464H96v-16h16V464z
			 M384,464h-16v-16h16V464z M408,432h-16H72V112h336V432z M408,96H72V16h336V96z"/>
	</g>
</g>
<g>
	<g>
		<path d="M383.352,259.216c-0.12-1.352-0.272-2.696-0.424-4.04c-0.368-3.072-0.837-6.125-1.408-9.16
			c-0.336-1.856-0.696-3.704-1.112-5.536c-0.664-2.936-1.4-5.848-2.256-8.736c-0.616-2.12-1.312-4.2-2.024-6.272
			c-0.552-1.6-1.136-3.2-1.736-4.736c-2.961-7.743-6.585-15.216-10.832-22.336c-0.408-0.672-0.76-1.376-1.176-2.048
			c-0.056-0.088-0.152-0.136-0.208-0.232c-41.892-67.601-130.654-88.442-198.255-46.549s-88.442,130.654-46.549,198.255
			c41.892,67.601,130.654,88.442,198.255,46.549c18.833-11.671,34.719-27.53,46.421-46.343c0.107-0.115,0.206-0.238,0.296-0.368
			c0.448-0.712,0.8-1.456,1.256-2.184c4.226-7.051,7.839-14.451,10.8-22.12c0.576-1.592,1.168-3.192,1.728-4.8
			c0.704-2.064,1.4-4.128,2.016-6.232c0.872-2.944,1.6-5.92,2.296-8.912c0.4-1.784,0.752-3.584,1.08-5.4
			c0.571-3.035,1.04-6.088,1.408-9.16c0.152-1.344,0.304-2.688,0.424-4.04c0.384-4.256,0.648-8.528,0.648-12.8
			C384,267.744,383.736,263.456,383.352,259.216z M240,400c-70.692,0.109-128.088-57.111-128.197-127.803
			S168.914,144.109,239.607,144c41.431-0.064,80.33,19.93,104.393,53.656l-21.456,11.312
			c-34.82-45.68-100.079-54.482-145.758-19.662c-45.68,34.82-54.483,100.078-19.662,145.758
			c34.82,45.68,100.079,54.482,145.758,19.662c7.405-5.644,14.018-12.257,19.662-19.662l21.408,11.336
			C319.987,380.001,281.272,399.963,240,400z M300.8,323.576l7.424,3.928c-30.65,37.718-86.073,43.448-123.791,12.799
			c-37.718-30.65-43.448-86.073-12.799-123.791c30.65-37.718,86.073-43.448,123.791-12.799c4.695,3.815,8.984,8.104,12.799,12.799
			l-7.408,3.912c-7.894,4.137-12.833,12.32-12.816,21.232V302.4C288.004,311.288,292.933,319.441,300.8,323.576z M304,302.4v-60.744
			c-0.001-2.97,1.644-5.696,4.272-7.08l8.952-4.72c14.378,26.262,14.378,58.042,0,84.304l-8.944-4.728
			C305.664,308.058,304.019,305.354,304,302.4z M367.424,283.432c-0.088,0.952-0.168,1.904-0.272,2.856
			c-0.384,3.408-0.899,6.776-1.544,10.104c-0.272,1.36-0.592,2.712-0.904,4.064c-0.48,2.088-1.024,4.152-1.6,6.2
			c-0.731,2.544-1.531,5.064-2.4,7.56c-0.568,1.6-1.144,3.248-1.776,4.8c-0.784,1.963-1.616,3.907-2.496,5.832
			c-0.44,0.96-0.912,1.904-1.376,2.848c-0.8,1.704-1.648,3.408-2.552,5.08l-21.136-11.2c16.838-30.94,16.838-68.308,0-99.248
			l21.136-11.144c0.92,1.68,1.744,3.4,2.576,5.12c0.448,0.912,0.904,1.816,1.32,2.736c0.896,1.952,1.741,3.923,2.536,5.912
			c0.584,1.48,1.112,3,1.648,4.504c0.928,2.608,1.768,5.24,2.52,7.896c0.568,2.008,1.104,4,1.6,6.08
			c0.32,1.384,0.648,2.76,0.92,4.152c0.64,3.312,1.155,6.667,1.544,10.064c0.104,0.952,0.184,1.912,0.272,2.864
			c0.336,3.768,0.576,7.568,0.576,11.424S367.76,279.656,367.424,283.432z"/>
	</g>
</g>
<g>
	<g>
		<path d="M240,32c-13.255,0-24,10.745-24,24s10.745,24,24,24s24-10.745,24-24S253.255,32,240,32z M240,64c-4.418,0-8-3.582-8-8
			s3.582-8,8-8s8,3.582,8,8S244.418,64,240,64z"/>
	</g>
</g>
<g>
	<g>
		<path d="M384,32h-64c-4.418,0-8,3.582-8,8v32c0,4.418,3.582,8,8,8h64c4.418,0,8-3.582,8-8V40C392,35.582,388.418,32,384,32z
			 M376,64h-48V48h48V64z"/>
	</g>
</g>
<g>
	<g>
		<rect x="184" y="32" width="16" height="16"/>
	</g>
</g>
<g>
	<g>
		<rect x="184" y="64" width="16" height="16"/>
	</g>
</g>
<g>
	<g>
		<rect x="280" y="32" width="16" height="16"/>
	</g>
</g>
<g>
	<g>
		<rect x="280" y="64" width="16" height="16"/>
	</g>
</g>
<g>
	<g>
		<path d="M160,32H96c-4.418,0-8,3.582-8,8v40h16V48h48v32h16V40C168,35.582,164.418,32,160,32z"/>
	</g>
</g>
<g>
	<g>
		<path d="M222,202.272l4,15.488c4.574-1.173,9.278-1.764,14-1.76v-16C233.928,199.995,227.88,200.758,222,202.272z"/>
	</g>
</g>
<g>
	<g>
		<path d="M204,209.64c-22.24,12.901-35.95,36.649-36,62.36h16c0.038-20.001,10.7-38.475,28-48.512L204,209.64z"/>
	</g>
</g>
<g>
</g>
<g>
</g>
<g>
</g>
<g>
</g>
<g>
</g>
<g>
</g>
<g>
</g>
<g>
</g>
<g>
</g>
<g>
</g>
<g>
</g>
<g>
</g>
<g>
</g>
<g>
</g>
<g>
</g>
</svg>
