<?xml version="1.0" encoding="iso-8859-1"?>
<!-- Generator: Adobe Illustrator 19.0.0, SVG Export Plug-In . SVG Version: 6.00 Build 0)  -->
<svg class="categoryIcon" version="1.1" id="Capa_1" xmlns="http://www.w3.org/2000/svg" xmlns:xlink="http://www.w3.org/1999/xlink" x="0px" y="0px"
	 viewBox="0 0 480 480" style="enable-background:new 0 0 480 480;" xml:space="preserve">
<g>
	<g>
		<path d="M472,416h-49.448L416,383.2V72c-0.044-39.746-32.254-71.956-72-72H80C40.236,0,8,32.235,8,72s32.235,72,72,72h48
			c13.255,0,24,10.745,24,24v56h-28.624c-14.216-0.013-28.116,4.197-39.936,12.096l-51.376,34.248
			C12.014,283.678-0.024,306.169,0,330.248V424c0.035,30.913,25.087,55.965,56,56h160c26.51-0.085,47.931-21.644,47.846-48.153
			c-0.065-20.225-12.8-38.24-31.846-45.047V264c-0.024-19.001-13.389-35.373-32-39.2V168c-0.044-39.746-32.254-71.956-72-72H80
			c-13.255,0-24-10.745-24-24s10.745-24,24-24h264c13.255,0,24,10.745,24,24v311.2l-6.552,32.8H312c-4.418,0-8,3.582-8,8v48
			c0,4.418,3.582,8,8,8h160c4.418,0,8-3.582,8-8v-48C480,419.582,476.418,416,472,416z M16,330.248
			c-0.019-18.728,9.343-36.22,24.936-46.592l51.376-34.248c9.194-6.144,20.006-9.418,31.064-9.408H173.6l-45.512,30.344
			c-20.059,13.329-32.107,35.82-32.088,59.904V368H16V330.248z M168,224v-16h16v16H168z M184,252.28v93
			c0.002,7.006-3.058,13.663-8.376,18.224l-35.84,30.72c-4.349,3.727-9.888,5.776-15.616,5.776H112v-24v-45.752
			c-0.019-18.728,9.343-36.22,24.936-46.592L184,252.28z M16,384h80v16H16V384z M56,464c-22.08-0.026-39.974-17.92-40-40v-8h80v8
			c-0.004,15.067,6.088,29.494,16.888,40H56z M248,432c0,17.673-14.327,32-32,32s-32-14.327-32-32c0-17.673,14.327-32,32-32
			S248,414.327,248,432z M200,345.28V241.6l0.144-0.096c9.487,3.422,15.822,12.411,15.856,22.496v120
			c-26.465-0.045-47.957,21.372-48.002,47.838c-0.02,11.877,4.371,23.339,12.322,32.162H152c-22.08-0.026-39.974-17.92-40-40v-8
			h12.168c9.539,0.005,18.766-3.4,26.016-9.6l35.848-30.712C194.908,368.08,200.011,356.97,200,345.28z M344,32H80
			c-22.091,0-40,17.909-40,40s17.909,40,40,40h48c30.913,0.035,55.965,25.087,56,56v24h-16v-24c-0.026-22.08-17.92-39.974-40-40H80
			c-30.928,0-56-25.072-56-56s25.072-56,56-56h264c30.913,0.035,55.965,25.087,56,56v48h-16V72C383.974,49.92,366.08,32.026,344,32z
			 M400,136v240h-16V136H400z M464,464H320v-32h48c3.802,0.001,7.08-2.675,7.84-6.4l6.712-33.6h18.896l6.712,33.6
			c0.76,3.725,4.038,6.401,7.84,6.4h48V464z"/>
	</g>
</g>
<g>
	<g>
		<rect x="32" y="336" width="16" height="16"/>
	</g>
</g>
<g>
	<g>
		<rect x="64" y="336" width="16" height="16"/>
	</g>
</g>
<g>
</g>
<g>
</g>
<g>
</g>
<g>
</g>
<g>
</g>
<g>
</g>
<g>
</g>
<g>
</g>
<g>
</g>
<g>
</g>
<g>
</g>
<g>
</g>
<g>
</g>
<g>
</g>
<g>
</g>
</svg>
