<svg class="categoryIcon"  id="Layer_5" enable-background="new 0 0 64 64" height="512" viewBox="0 0 64 64" width="512" xmlns="http://www.w3.org/2000/svg"><g><path d="m51 13h-4v-5c0-1.654-1.346-3-3-3h-12c-1.654 0-3 1.346-3 3v5.08c-1.329.191-2.539.752-3.518 1.582-.752-.429-1.607-.662-2.482-.662-1.728 0-3.308.903-4.21 2.331-.692-.266-1.432-.387-2.201-.311-.778-1.796-2.577-3.02-4.589-3.02-2.757 0-5 2.243-5 5 0 .136.006.272.02.411-1.796.778-3.02 2.577-3.02 4.589 0 .696.148 1.376.421 2h-.421c-1.654 0-3 1.346-3 3v2c0 1.338.886 2.461 2.098 2.846l2.472 19.774c.311 2.497 2.445 4.38 4.961 4.38h12.549c.488 3.387 3.401 6 6.92 6h26c3.86 0 7-3.14 7-7v-31c0-6.617-5.383-12-12-12zm-19-6h1v4h2v-4h2v4h2v-4h2v4h2v-4h1c.551 0 1 .449 1 1v5h-14v-5c0-.551.449-1 1-1zm-26 16c0-1.408.999-2.642 2.376-2.933l1.048-.222-.293-1.031c-.089-.312-.131-.571-.131-.814 0-1.654 1.346-3 3-3 1.408 0 2.642.999 2.933 2.376l.222 1.048 1.031-.293c.312-.089.571-.131.814-.131.602 0 1.182.178 1.679.514l1.076.728.429-1.226c.421-1.206 1.553-2.016 2.816-2.016.386 0 .763.081 1.116.223-.703 1.091-1.116 2.385-1.116 3.777v5h-16.213c-.495-.549-.787-1.254-.787-2zm-3 5c0-.551.449-1 1-1h19v4h-19c-.551 0-1-.449-1-1zm4.554 24.372-2.421-19.372h17.867v22h-12.469c-1.51 0-2.79-1.13-2.977-2.628zm53.446 3.628c0 2.757-2.243 5-5 5h-26c-2.757 0-5-2.243-5-5v-36c0-2.757 2.243-5 5-5h21c5.514 0 10 4.486 10 10z"/><path d="m50 17c-1.654 0-3 1.346-3 3v12c0 4.962 4.038 9 9 9 1.654 0 3-1.346 3-3v-12c0-4.962-4.038-9-9-9zm7 21c0 .551-.449 1-1 1-3.86 0-7-3.14-7-7v-12c0-.551.449-1 1-1 3.86 0 7 3.14 7 7z"/><path d="m45 33v-13c0-1.654-1.346-3-3-3h-12c-1.654 0-3 1.346-3 3v36c0 1.654 1.346 3 3 3h26c1.654 0 3-1.346 3-3v-13h-4c-5.514 0-10-4.486-10-10zm12 23c0 .551-.449 1-1 1h-26c-.551 0-1-.449-1-1v-36c0-.551.449-1 1-1h12c.551 0 1 .449 1 1v13c0 6.617 5.383 12 12 12h2z"/><path d="m11.023 47.876-1.984.248.391 3.124c.124.999.977 1.752 1.984 1.752h3.586v-2h-3.586z"/><path d="m4 12c1.654 0 3-1.346 3-3s-1.346-3-3-3-3 1.346-3 3 1.346 3 3 3zm0-4c.551 0 1 .449 1 1s-.449 1-1 1-1-.449-1-1 .449-1 1-1z"/><path d="m15 11c0 1.654 1.346 3 3 3s3-1.346 3-3-1.346-3-3-3-3 1.346-3 3zm3-1c.551 0 1 .449 1 1s-.449 1-1 1-1-.449-1-1 .449-1 1-1z"/><path d="m25 7c1.654 0 3-1.346 3-3s-1.346-3-3-3-3 1.346-3 3 1.346 3 3 3zm0-4c.551 0 1 .449 1 1s-.449 1-1 1-1-.449-1-1 .449-1 1-1z"/><path d="m12 9c2.206 0 4-1.794 4-4s-1.794-4-4-4-4 1.794-4 4 1.794 4 4 4zm0-6c1.103 0 2 .897 2 2s-.897 2-2 2-2-.897-2-2 .897-2 2-2z"/><path d="m39 39c-4.411 0-8 3.589-8 8s3.589 8 8 8 8-3.589 8-8-3.589-8-8-8zm0 14c-3.309 0-6-2.691-6-6s2.691-6 6-6 6 2.691 6 6-2.691 6-6 6z"/><path d="m35 47h2c0-1.103.897-2 2-2v-2c-2.206 0-4 1.794-4 4z"/><path d="m49 47h6v2h-6z"/><path d="m49 51h6v2h-6z"/><path d="m36 29c2.206 0 4-1.794 4-4s-1.794-4-4-4-4 1.794-4 4 1.794 4 4 4zm0-6c1.103 0 2 .897 2 2s-.897 2-2 2-2-.897-2-2 .897-2 2-2z"/><path d="m31 31h10v2h-10z"/><path d="m31 35h10v2h-10z"/><path d="m17 51h2v2h-2z"/></g></svg>
