<svg id="Layer_5" enable-background="new 0 0 64 64" height="512" viewBox="0 0 64 64" width="512" xmlns="http://www.w3.org/2000/svg"><g><path d="m60.888 61c.067-.329.112-.662.112-1 0-2.528-1.893-4.602-4.332-4.932.87-1.234 1.332-2.609 1.332-4.068 0-2.876-1.741-5.958-3.394-8.243l1.314-15.757h1.08c1.654 0 3-1.346 3-3v-2c0-1.338-.886-2.461-2.098-2.846.063-.379.098-.764.098-1.154 0-5.353-6.036-11.45-6.293-11.707l-.707-.707-.707.707c-.117.117-1.442 1.462-2.846 3.39-1.817-3.443-4.604-6.254-4.74-6.39l-.707-.707-.707.707c-.137.137-1.945 1.969-3.588 4.461-1.002-3.877-4.519-6.754-8.705-6.754h-1v7c0 1.029.194 2.04.534 3h-6.534v1c0 2.606.895 5.053 2.51 7h-4.51v-14c0-2.206-1.794-4-4-4s-4 1.794-4 4v29c0 .395.081.77.22 1.116-1.275.345-2.22 1.501-2.22 2.884v3h-4c-2.757 0-5 2.243-5 5v15c0 1.103.897 2 2 2h2c1.103 0 2-.897 2-2v-4h2v4c0 1.103.897 2 2 2h2c1.103 0 2-.897 2-2v-4h2v4c0 1.103.897 2 2 2h2c1.103 0 2-.897 2-2v-4h2v4c0 1.103.897 2 2 2h1 1 34v-2zm-6.327-6.49c-.693-.715-1.579-1.203-2.561-1.402v-2.573l2.555-1.703-1.109-1.664-1.446.964v-3.132h-2v5.586l-1.293-1.293-1.414 1.414 2.464 2.464c-.886.231-1.682.7-2.314 1.344-.953-1.054-1.443-2.231-1.443-3.515 0-3.546 3.473-7.823 5.001-9.533 1.528 1.708 4.999 5.979 4.999 9.533 0 1.283-.489 2.458-1.439 3.51zm-1.77-14.041c-.598-.686-1.02-1.112-1.084-1.176l-.707-.707-.707.707c-.257.257-6.293 6.354-6.293 11.707 0 1.848.731 3.564 2.112 5.021-.5-.016-.99.035-1.468.173-.723-1.887-2.54-3.194-4.644-3.194-2.013 0-3.811 1.225-4.589 3.021-1.113-.11-2.173.179-3.097.771-.395.069-.859.232-1.314.492v-11.284c0-2.757-2.243-5-5-5h-.747l-1.166-14h29.827zm-28.791 8.531c-1.654 0-3 1.346-3 3v3h-2v-3c0-1.654-1.346-3-3-3s-3 1.346-3 3v3h-2v-3c0-1.654-1.346-3-3-3s-3 1.346-3 3v3h-2v-8h26v8h-2v-3c0-1.654-1.346-3-3-3zm-4.22-13.884c.139-.346.22-.721.22-1.116v-7h2.08l1.166 14h-1.246v-3c0-1.383-.945-2.539-2.22-2.884zm31.221-26.649c1.528 1.708 4.999 5.98 4.999 9.533 0 .341-.045.673-.112 1h-3.888v-1.465l2.555-1.703-1.109-1.664-1.446.964v-3.132h-2v5.586l-1.293-1.293-1.414 1.414 1.293 1.293h-2.474c-.067-.326-.112-.659-.112-1 0-3.546 3.473-7.823 5.001-9.533zm-8.001 6.068 2.437-1.625c-.833 1.633-1.437 3.398-1.437 5.09 0 .338.038.67.086 1h-1.086zm-.999-9.068c1.055 1.18 3.026 3.589 4.156 6.158-.224.372-.44.753-.644 1.145l-1.068-1.602-1.445.964v-3.132h-2v5.586l-1.293-1.293-1.414 1.414 2.707 2.707v1.586h-1.421c-.485-1.714-1.375-3.241-2.548-4.494.295-3.443 3.512-7.408 4.97-9.039zm-12.001-2.396c3.388.487 6 3.408 6 6.929v.827c-.309.704-.558 1.424-.734 2.146-1.328-.923-2.862-1.555-4.502-1.824-.492-.973-.764-2.048-.764-3.149zm-5.946 9.929h4.946c3.84 0 7.225 2.463 8.479 6h-10.12c-1.873-1.508-3.047-3.639-3.305-6zm32.946 8c.552 0 1 .449 1 1v2c0 .551-.448 1-1 1h-37v-4zm-43-16c0-1.103.897-2 2-2s2 .897 2 2v29c0 .552-.448 1-1 1h-2c-.552 0-1-.448-1-1zm-2 33c0-.552.448-1 1-1h2 2 2c.552 0 1 .448 1 1v3h-8zm-6 5h20c1.302 0 2.402.839 2.816 2h-25.632c.414-1.161 1.514-2 2.816-2zm-1 18h-2v-4h2zm2-6v-3c0-.552.448-1 1-1s1 .448 1 1v3zm6 6h-2v-4h2zm2-6v-3c0-.552.448-1 1-1s1 .448 1 1v3zm6 6h-2v-4h2zm2-6v-3c0-.552.448-1 1-1s1 .448 1 1v3zm5 6h-1v-4h2v4zm4.763-2.252.274-.022.225-.16c.516-.371 1.118-.566 1.738-.566.241 0 .5.042.816.131l1.029.291.222-1.046c.291-1.377 1.525-2.376 2.933-2.376 1.526 0 2.801 1.153 2.963 2.684l.165 1.558 1.343-.806c.483-.29.997-.436 1.529-.436.241 0 .5.042.816.131l1.029.291.222-1.046c.291-1.377 1.525-2.376 2.933-2.376 1.151 0 2.183.652 2.69 1.704l.398.823.855-.323c2.095-.792 4.057.8 4.057 2.796 0 .345-.08.678-.194 1h-27.806c0-1.965 1.478-2.221 1.763-2.252z"/><path d="m34 29h2v2h-2z"/><path d="m26 29h2v2h-2z"/><path d="m30 29h2v2h-2z"/></g></svg>