<?xml version="1.0" encoding="iso-8859-1"?>
<!-- Generator: Adobe Illustrator 19.0.0, SVG Export Plug-In . SVG Version: 6.00 Build 0)  -->
<svg class="categoryIcon" version="1.1" id="Capa_1" xmlns="http://www.w3.org/2000/svg" xmlns:xlink="http://www.w3.org/1999/xlink" x="0px" y="0px"
	 viewBox="0 0 480 480" style="enable-background:new 0 0 480 480;" xml:space="preserve">
<g>
	<g>
		<path d="M424,48H296V24c0-13.255-10.745-24-24-24h-64c-13.255,0-24,10.745-24,24v24H56c-4.418,0-8,3.582-8,8v32
			c0,4.418,3.582,8,8,8h16.488L96,472.496c0.262,4.224,3.768,7.512,8,7.504h272c4.232,0.008,7.738-3.281,8-7.504L407.512,96H424
			c4.418,0,8-3.582,8-8V56C432,51.582,428.418,48,424,48z M200,24c0-4.418,3.582-8,8-8h64c4.418,0,8,3.582,8,8v24h-80V24z
			 M368.488,464H111.512l-2-32h260.976L368.488,464z M371.512,416h-263l-17-272h296.976L371.512,416z M389.512,128h-299l-2-32
			h302.976L389.512,128z M416,80H64V64h352V80z"/>
	</g>
</g>
<g>
	<g>
		<rect x="232" y="168" width="16" height="224"/>
	</g>
</g>
<g>
	<g>
		<rect x="184" y="168" width="16" height="224"/>
	</g>
</g>
<g>
	<g>
		<rect x="131.998" y="167.933" transform="matrix(0.9994 -0.0357 0.0357 0.9994 -9.9025 5.1738)" width="16" height="224.159"/>
	</g>
</g>
<g>
	<g>
		<rect x="227.913" y="271.981" transform="matrix(0.0357 -0.9994 0.9994 0.0357 48.0591 609.7678)" width="224.159" height="16"/>
	</g>
</g>
<g>
	<g>
		<rect x="280" y="168" width="16" height="224"/>
	</g>
</g>
<g>
</g>
<g>
</g>
<g>
</g>
<g>
</g>
<g>
</g>
<g>
</g>
<g>
</g>
<g>
</g>
<g>
</g>
<g>
</g>
<g>
</g>
<g>
</g>
<g>
</g>
<g>
</g>
<g>
</g>
</svg>
