<?xml version="1.0" standalone="no"?>
<!DOCTYPE svg PUBLIC "-//W3C//DTD SVG 20010904//EN"
 "http://www.w3.org/TR/2001/REC-SVG-20010904/DTD/svg10.dtd">
<svg version="1.0" xmlns="http://www.w3.org/2000/svg"
 width="405.000000pt" height="405.000000pt" viewBox="0 0 405.000000 405.000000"
 preserveAspectRatio="xMidYMid meet">
<metadata>
Created by potrace 1.11, written by Peter Selinger 2001-2013
</metadata>
<g transform="translate(0.000000,405.000000) scale(0.100000,-0.100000)"
fill="#000000" stroke="none">
<path d="M1185 3788 c2 -7 43 -182 90 -388 48 -206 91 -394 97 -417 l10 -43
93 0 93 0 11 33 c5 17 33 121 62 230 30 111 56 192 60 185 4 -7 30 -103 58
-213 29 -110 54 -208 57 -217 5 -16 18 -18 100 -18 52 0 94 1 94 3 0 1 45 193
99 427 l98 425 -100 3 c-56 1 -103 -1 -106 -7 -3 -5 -26 -109 -50 -230 -25
-121 -47 -218 -50 -215 -3 3 -31 105 -62 227 l-55 222 -86 3 -85 3 -41 -158
c-23 -87 -50 -192 -60 -233 -11 -41 -22 -68 -25 -60 -3 8 -24 105 -47 215 -22
110 -43 208 -46 218 -5 15 -19 17 -109 17 -79 0 -103 -3 -100 -12z m195 -10
c9 -63 108 -509 112 -503 3 6 34 121 68 258 l63 247 73 0 73 0 9 -32 c5 -18
35 -136 67 -262 l59 -229 53 258 c30 142 55 260 57 262 2 2 42 3 88 1 l85 -3
-95 -412 -96 -413 -81 0 -81 0 -59 228 c-32 125 -63 243 -68 262 -11 40 -1 69
-103 -312 l-47 -178 -81 0 -81 0 -96 415 -96 415 89 0 c48 0 88 -1 88 -2z"/>
<path d="M2230 3370 l0 -430 295 0 295 0 0 85 0 85 -187 2 -188 3 -3 88 -3 87
161 0 160 0 0 90 0 90 -160 0 -160 0 0 75 0 75 190 0 190 0 0 90 0 90 -295 0
-295 0 0 -430z m570 340 l0 -70 -187 -2 -188 -3 0 -90 0 -90 163 -3 162 -2 0
-70 0 -70 -162 -2 -163 -3 -3 -102 -3 -103 196 0 195 0 0 -75 0 -75 -280 0
-280 0 0 415 0 415 275 0 275 0 0 -70z"/>
<path d="M300 2060 l0 -430 285 0 285 0 0 85 0 85 -182 2 -183 3 -3 343 -2
342 -100 0 -100 0 0 -430z m190 70 l0 -340 180 0 180 0 0 -75 0 -75 -270 0
-270 0 0 415 0 415 90 0 90 0 0 -340z"/>
<path d="M910 2060 l0 -430 105 0 105 0 0 430 0 430 -105 0 -105 0 0 -430z
m190 -5 l0 -415 -85 0 -85 0 0 415 0 415 85 0 85 0 0 -415z"/>
<path d="M1220 2060 l0 -430 105 0 105 0 0 133 c0 130 1 134 26 158 21 20 27
22 34 9 5 -8 54 -78 108 -155 l99 -140 119 -5 c65 -3 248 -4 407 -2 l287 3 0
84 0 85 -187 2 -188 3 -3 88 -3 87 166 0 165 0 0 90 0 90 -165 0 -165 0 0 75
0 75 190 0 190 0 0 90 0 90 -414 0 -413 0 -124 -149 -124 -150 -3 150 -3 149
-104 0 -105 0 0 -430z m192 246 l3 -165 135 164 135 164 109 0 c102 1 108 0
95 -16 -8 -10 -70 -85 -139 -168 -69 -82 -131 -158 -139 -167 -12 -16 0 -37
105 -185 65 -93 138 -196 162 -230 l44 -63 -105 0 -104 0 -113 163 c-62 89
-115 164 -117 166 -2 3 -19 -11 -38 -29 l-35 -34 0 -133 0 -133 -90 0 -90 0 0
415 0 415 90 0 90 0 2 -164z m1078 94 l0 -70 -185 0 -185 0 0 -95 0 -95 160 0
160 0 0 -70 0 -70 -160 0 -160 0 0 -105 0 -105 190 0 190 0 0 -75 0 -75 -280
0 -280 0 0 415 0 415 275 0 275 0 0 -70z m-572 -526 l-3 -195 -148 211 -149
211 47 57 c26 31 93 111 149 177 l101 121 3 -193 c1 -106 1 -281 0 -389z"/>
<path d="M2840 2060 l0 -430 105 0 105 0 0 430 0 430 -105 0 -105 0 0 -430z
m198 -2 l-3 -413 -87 -3 -88 -3 0 416 0 415 90 0 90 0 -2 -412z"/>
<path d="M3080 2400 l0 -89 123 -3 122 -3 3 -337 2 -338 100 0 100 0 0 340 0
340 125 0 125 0 0 90 0 90 -350 0 -350 0 0 -90z m680 0 l0 -70 -120 0 -120 0
0 -345 0 -345 -90 0 -90 0 0 345 0 345 -120 0 -120 0 0 70 0 70 330 0 330 0 0
-70z"/>
<path d="M1194 1181 c-51 -13 -134 -63 -166 -100 -98 -111 -133 -329 -81 -511
45 -161 171 -260 332 -260 l69 0 89 -70 c48 -38 90 -70 93 -70 3 0 37 28 75
63 l68 63 -66 52 -67 52 30 41 c52 72 72 142 78 267 10 236 -57 381 -207 450
-60 28 -184 39 -247 23z m143 -182 c76 -29 107 -102 106 -259 0 -164 -43 -238
-142 -248 -106 -10 -161 64 -169 228 -7 148 28 244 102 276 38 16 66 17 103 3z"/>
<path d="M320 750 l0 -430 295 0 295 0 0 85 0 85 -190 0 -190 0 0 90 0 90 160
0 160 0 0 90 0 90 -160 0 -160 0 0 75 0 75 185 0 185 0 0 90 0 90 -290 0 -290
0 0 -430z"/>
<path d="M1710 892 c0 -330 7 -386 55 -457 65 -95 150 -130 303 -123 84 3 104
8 151 33 29 16 68 47 87 68 61 72 64 95 64 449 l0 318 -100 0 -99 0 -3 -309
c-3 -296 -4 -311 -24 -338 -48 -64 -165 -64 -204 0 -19 30 -20 52 -20 340 l0
307 -105 0 -105 0 0 -288z"/>
<path d="M2527 768 c-85 -227 -159 -421 -162 -430 -7 -17 2 -18 103 -18 l110
0 13 38 c6 20 20 61 31 90 l19 52 129 0 129 0 19 -52 c11 -29 25 -70 31 -90
l13 -38 110 0 c84 0 109 3 105 12 -2 7 -75 201 -162 431 l-158 417 -87 0 -87
0 -156 -412z m276 9 c15 -46 27 -86 27 -90 0 -4 -27 -7 -60 -7 -33 0 -60 3
-60 7 0 16 55 173 60 173 3 0 18 -37 33 -83z"/>
<path d="M3190 750 l0 -430 285 0 285 0 0 85 0 85 -180 0 -180 0 0 345 0 345
-105 0 -105 0 0 -430z"/>
</g>
</svg>
